<svg xmlns="http://www.w3.org/2000/svg" viewBox="0 0 256 256">
  <title>Timer Icon</title>
  <rect width="256" height="256" fill="none"/>
  <!-- Stopwatch body -->
  <circle cx="128" cy="160" r="84" fill="#cfcfcf"/>
  <circle cx="128" cy="160" r="68" fill="#111"/>
  <!-- Ticks -->
  <g stroke="#cfcfcf" stroke-width="10" stroke-linecap="round">
    <line x1="128" y1="86" x2="128" y2="102"/>
    <line x1="128" y1="218" x2="128" y2="234"/>
    <line x1="60" y1="160" x2="44" y2="160"/>
    <line x1="212" y1="160" x2="228" y2="160"/>
    <line x1="88" y1="108" x2="76" y2="96"/>
    <line x1="168" y1="108" x2="180" y2="96"/>
    <line x1="88" y1="212" x2="76" y2="224"/>
    <line x1="168" y1="212" x2="180" y2="224"/>
  </g>
  <!-- Hand -->
  <circle cx="128" cy="160" r="18" fill="#cfcfcf"/>
  <path d="M128 160 L176 112" stroke="#cfcfcf" stroke-width="16" stroke-linecap="round"/>
  <!-- Crown -->
  <rect x="104" y="34" width="48" height="24" rx="12" fill="#cfcfcf"/>
  <rect x="120" y="58" width="16" height="26" rx="8" fill="#cfcfcf"/>
  <!-- Pusher -->
  <rect x="176" y="70" width="32" height="24" rx="6" transform="rotate(45 192 82)" fill="#cfcfcf"/>
</svg>
